<svg xmlns="http://www.w3.org/2000/svg" viewBox="0 0 200 200" width="100%" height="100%">
  <rect width="200" height="200" fill="#130e20" rx="16"/>
  <ellipse cx="100" cy="115" rx="70" ry="60" fill="#e65100"/>
  <ellipse cx="70" cy="115" rx="35" ry="58" fill="#f57c00"/>
  <ellipse cx="130" cy="115" rx="35" ry="58" fill="#f57c00"/>
  <ellipse cx="100" cy="115" rx="30" ry="56" fill="#ff9800"/>
  <!-- Stem -->
  <path d="M96 55 C96 42 108 38 116 34 C112 44 105 52 104 55 Z" fill="#2e7d32"/>
  <!-- Carved Eyes -->
  <polygon points="68,95 82,105 68,112" fill="#130e20"/>
  <polygon points="132,95 118,105 132,112" fill="#130e20"/>
  <!-- Carved Nose -->
  <polygon points="100,110 93,122 107,122" fill="#130e20"/>
  <!-- Carved Smile -->
  <path d="M60 135 Q100 168 140 135 Q125 152 100 152 Q75 152 60 135 Z" fill="#130e20"/>
  <rect x="78" y="137" width="10" height="8" fill="#ff9800"/>
  <rect x="112" y="137" width="10" height="8" fill="#ff9800"/>
  <rect x="95" y="146" width="10" height="8" fill="#ff9800"/>
</svg>
