<svg xmlns="http://www.w3.org/2000/svg" viewBox="0 0 200 200" width="100%" height="100%">
  <rect width="200" height="200" fill="#0f172a" rx="16"/>
  <!-- Misty Moon -->
  <circle cx="150" cy="50" r="30" fill="#f8fafc" opacity="0.8"/>
  <!-- Gothic Mansion Silhouettes -->
  <path d="M20 170 L20 120 L40 90 L60 120 L60 170 Z" fill="#020617"/>
  <path d="M55 170 L55 100 L95 70 L135 100 L135 170 Z" fill="#020617"/>
  <polygon points="95,40 85,75 105,75" fill="#020617"/>
  <rect x="92" y="30" width="6" height="15" fill="#020617"/>
  <path d="M130 170 L130 115 L155 85 L180 115 L180 170 Z" fill="#020617"/>
  <!-- Glowing Attic Window -->
  <polygon points="95,85 88,98 102,98" fill="#facc15"/>
  <rect x="90" y="125" width="10" height="18" rx="5" fill="#facc15"/>
  <!-- Creepy Twisted Trees -->
  <path d="M10 170 Q15 140 5 125 Q20 135 25 120" stroke="#020617" stroke-width="3" fill="none"/>
  <path d="M185 170 Q175 135 190 120 Q175 130 170 110" stroke="#020617" stroke-width="3" fill="none"/>
  <rect x="0" y="170" width="200" height="30" fill="#020617"/>
</svg>
