<svg xmlns="http://www.w3.org/2000/svg" viewBox="0 0 100 100" width="100%" height="100%">
  <defs>
    <radialGradient id="moon-bg" cx="50%" cy="50%" r="50%">
      <stop offset="0%" stop-color="#fef08a"/>
      <stop offset="70%" stop-color="#f59e0b"/>
      <stop offset="100%" stop-color="#b45309"/>
    </radialGradient>
  </defs>
  <!-- Background Circle (Full Moon) -->
  <circle cx="50" cy="50" r="46" fill="url(#moon-bg)" stroke="#ffd700" stroke-width="3"/>
  <!-- Wolf Ears -->
  <polygon points="28,42 22,14 42,28" fill="#374151" stroke="#1f2937" stroke-width="1.5"/>
  <polygon points="28,38 25,20 37,30" fill="#9ca3af"/>
  <polygon points="72,42 78,14 58,28" fill="#374151" stroke="#1f2937" stroke-width="1.5"/>
  <polygon points="72,38 75,20 63,30" fill="#9ca3af"/>
  <!-- Furry Head Base -->
  <path d="M26 46 L18 56 L28 62 L20 72 L36 78 L50 84 L64 78 L80 72 L72 62 L82 56 L74 46 C74 34, 26 34, 26 46 Z" fill="#4b5563"/>
  <!-- Inner Face Fur -->
  <path d="M34 46 L28 56 L36 60 L32 68 L50 78 L68 68 L64 60 L72 56 L66 46 C66 38, 34 38, 34 46 Z" fill="#6b7280"/>
  <!-- Glowing Amber Predator Eyes -->
  <polygon points="36,46 44,49 43,44" fill="#fbbf24"/>
  <polygon points="64,46 56,49 57,44" fill="#fbbf24"/>
  <circle cx="41" cy="46" r="1.2" fill="#000000"/>
  <circle cx="59" cy="46" r="1.2" fill="#000000"/>
  <!-- Wolf Muzzle & Nose -->
  <polygon points="45,56 55,56 50,62" fill="#111827"/>
  <!-- Snarl with Sharp Fangs -->
  <path d="M42 66 Q50 63 58 66 Q50 74 42 66 Z" fill="#1f2937"/>
  <polygon points="44,65 47,65 45.5,70" fill="#ffffff"/>
  <polygon points="53,65 56,65 54.5,70" fill="#ffffff"/>
</svg>
